<svg width="223" height="32" viewBox="0 0 223 32" fill="none" xmlns="http://www.w3.org/2000/svg">
<path d="M221.191 32.0004C220.852 32.0004 220.545 31.9222 220.271 31.7629C219.997 31.6035 219.779 31.3892 219.617 31.1198C219.455 30.8504 219.372 30.5491 219.372 30.2189C219.372 29.8887 219.455 29.5874 219.617 29.318C219.779 29.0457 219.997 28.8314 220.271 28.6721C220.545 28.5127 220.852 28.4316 221.191 28.4316C221.529 28.4316 221.827 28.5127 222.101 28.6721C222.375 28.8314 222.593 29.0486 222.756 29.318C222.918 29.5903 223 29.8887 223 30.2189C223 30.5491 222.918 30.8475 222.756 31.1198C222.593 31.3892 222.375 31.6035 222.101 31.7629C221.827 31.9222 221.524 32.0004 221.191 32.0004ZM221.188 31.5543C221.453 31.5543 221.686 31.4992 221.883 31.3892C222.081 31.2791 222.234 31.1256 222.343 30.9257C222.452 30.7258 222.508 30.4912 222.508 30.216C222.508 29.9408 222.452 29.712 222.343 29.5121C222.234 29.3122 222.081 29.1558 221.883 29.0428C221.686 28.9299 221.453 28.8748 221.188 28.8748C220.922 28.8748 220.687 28.9299 220.489 29.0428C220.292 29.1529 220.138 29.3093 220.029 29.5121C219.92 29.712 219.864 29.9495 219.864 30.2189C219.864 30.4883 219.92 30.7258 220.029 30.9257C220.138 31.1256 220.292 31.2791 220.489 31.3892C220.687 31.4992 220.919 31.5543 221.188 31.5543ZM220.457 31.114V29.347H221.3C221.515 29.347 221.683 29.3876 221.807 29.4687C221.927 29.5498 221.989 29.6656 221.989 29.8192C221.989 29.9408 221.954 30.0422 221.883 30.1204C221.812 30.1986 221.727 30.2566 221.627 30.2942L221.98 31.114H221.488L221.214 30.3377H220.902V31.114H220.457ZM220.902 30.0277H221.279C221.347 30.0277 221.403 30.0132 221.45 29.9814C221.497 29.9495 221.521 29.9061 221.521 29.8423C221.521 29.7786 221.5 29.7381 221.453 29.7033C221.409 29.6685 221.341 29.6512 221.252 29.6512H220.896V30.0277H220.902Z" fill="#115C5A"/>
<path d="M89.2032 20.8161C89.2032 22.7047 89.1943 24.2458 89.2091 25.7868C89.215 26.314 89.2739 26.8441 89.3329 27.3684C89.3506 27.5277 89.436 27.6842 89.5009 27.8377C89.6866 28.278 90.0697 28.4025 90.5089 28.4344C90.7653 28.4547 91.0246 28.4663 91.2781 28.4952C91.5846 28.5271 91.8764 28.6198 91.9707 28.9413C92.0621 29.2542 92.0208 29.5467 91.7585 29.8017C91.4166 30.1348 91.06 30.436 90.615 30.6272C90.4263 30.7083 90.2524 30.8271 90.0579 30.9024C89.5922 31.0791 89.1177 31.2413 88.6461 31.4035C88.543 31.4383 88.431 31.4412 88.319 31.4499C88.1598 31.4644 87.9977 31.4528 87.8415 31.4875C87.3169 31.6005 86.7923 31.5252 86.2677 31.502C85.7519 31.4788 85.2715 31.3485 84.8176 31.1399C84.3048 30.9053 83.8479 30.5751 83.5149 30.1116C82.9077 29.2658 82.6307 28.3272 82.557 27.2873C82.33 24.0517 82.501 20.8161 82.4568 17.5805C82.4391 16.4247 82.4037 15.2718 82.2917 14.1189C82.274 13.9422 82.221 13.7655 82.1503 13.6033C82.0147 13.2847 81.9557 12.94 81.7288 12.6503C81.4164 12.2476 81.0568 11.9464 80.5558 11.7842C79.7954 11.5379 79.0526 11.5872 78.3188 11.8421C77.7647 12.0333 77.3167 12.3925 76.9659 12.8559C76.6741 13.2412 76.4737 13.667 76.3028 14.1247C75.9845 14.9561 75.9285 15.8222 75.9196 16.6796C75.8872 19.5068 75.8961 22.3369 75.9196 25.1669C75.9255 25.9606 75.9963 26.7543 76.1024 27.5422C76.1495 27.884 76.3234 28.2287 76.5061 28.53C76.7803 28.9819 77.1192 29.3961 77.4287 29.8248C77.7352 30.2535 77.6409 30.8676 77.2135 31.0791C77.0691 31.1515 76.8834 31.1718 76.7184 31.1776C76.2409 31.1892 75.7605 31.1776 75.283 31.1776C73.0136 31.1747 70.7412 31.1718 68.4718 31.1689C68.233 31.1689 68.012 31.1399 67.8027 31.0154C67.6288 30.914 67.5316 30.7721 67.5168 30.5809C67.4933 30.2738 67.5434 29.9928 67.7438 29.7321C68.0591 29.3208 68.3892 28.9095 68.6339 28.4576C68.8431 28.0752 69.0583 27.6784 69.0612 27.2091C69.0701 26.2938 69.132 25.3813 69.132 24.4659C69.1408 21.5895 69.1379 18.7131 69.1261 15.8338C69.1261 15.2341 69.076 14.6316 69.0347 14.032C69.0229 13.8698 68.9551 13.7076 68.905 13.5512C68.8697 13.4382 68.8137 13.3281 68.7783 13.2151C68.5425 12.491 68.0621 12.0217 67.3194 11.7813C66.5472 11.5293 65.7927 11.5843 65.047 11.8421C64.5047 12.0304 64.0685 12.3867 63.7177 12.8328C63.426 13.2036 63.2285 13.6178 63.0546 14.061C62.7422 14.8663 62.6538 15.7034 62.6479 16.5377C62.6184 19.5357 62.6272 22.5309 62.6508 25.529C62.6567 26.2474 62.754 26.9687 62.863 27.6813C62.9102 27.9767 63.0693 28.2722 63.2344 28.5329C63.5114 28.9703 63.8239 29.3845 64.1392 29.7988C64.3514 30.0768 64.3662 30.3781 64.2984 30.6909C64.2777 30.7865 64.1923 30.8792 64.1156 30.9459C63.8798 31.1457 63.591 31.1834 63.2874 31.1834C60.5641 31.1776 57.8379 31.1718 55.1145 31.1747C54.7726 31.1747 54.4602 31.1168 54.307 30.7894C54.1478 30.4476 54.2215 30.0971 54.4249 29.793C54.7108 29.3614 55.0408 28.9558 55.3149 28.5184C55.5832 28.0897 55.7954 27.632 55.8042 27.1048C55.816 26.2735 55.869 25.445 55.869 24.6137C55.872 21.4476 55.8661 18.2815 55.8543 15.1154C55.8543 14.6838 55.8189 14.2493 55.7954 13.8177C55.7718 13.3947 55.5625 13.0355 55.3474 12.6908C55.0733 12.2534 54.7373 11.8537 54.4396 11.4279C54.2598 11.1701 54.2068 10.8717 54.248 10.5647C54.2804 10.3416 54.3924 10.1794 54.6312 10.0838C55.2177 9.84917 55.8189 9.65509 56.4261 9.47839C56.8328 9.35963 57.2248 9.18583 57.6227 9.04389C57.9086 8.9425 58.1974 8.84112 58.4863 8.75712C58.9755 8.61228 59.4677 8.47903 59.9629 8.34289C60.0925 8.30813 60.2281 8.29654 60.3578 8.25888C60.7144 8.1517 61.0445 8.2444 61.3511 8.40372C61.4778 8.47034 61.6016 8.61518 61.6458 8.74842C61.7313 9.00913 61.7666 9.28431 61.8108 9.55661C61.8433 9.75648 61.8285 9.96794 61.8757 10.1649C61.9405 10.4372 62.1026 10.5125 62.3738 10.4169C62.4622 10.3851 62.5506 10.33 62.6243 10.2721C63.1695 9.826 63.7207 9.3828 64.3514 9.05837C64.6638 8.89905 65.0087 8.80057 65.3152 8.63256C65.7868 8.37185 66.3291 8.37765 66.8183 8.18357C67.0276 8.09956 67.2752 8.08508 67.505 8.08218C68.4865 8.07639 69.4709 8.03584 70.4465 8.11115C70.9947 8.1517 71.5281 8.38923 72.0645 8.54566C72.4772 8.66732 72.8456 8.87878 73.2022 9.1192C73.7475 9.48708 74.1866 9.94476 74.5727 10.4633C74.5786 10.472 74.5845 10.4835 74.5933 10.4922C74.9323 10.921 75.2241 10.9499 75.6367 10.5907C75.8666 10.3909 76.0758 10.1707 76.3087 9.97663C76.8304 9.53923 77.3904 9.16265 78.024 8.88457C78.584 8.63835 79.1587 8.46165 79.7423 8.28785C80.6324 8.02135 81.5313 8.03873 82.4362 8.04453C82.7663 8.04453 83.0993 8.0706 83.4294 8.07349C83.7389 8.07929 84.0395 8.11694 84.3224 8.25888C84.3961 8.29654 84.4845 8.32551 84.5671 8.3313C85.0622 8.36606 85.4601 8.62966 85.8963 8.81795C86.4386 9.05548 86.8748 9.42625 87.2727 9.826C87.6175 10.1736 87.927 10.5791 88.1569 11.0079C88.7287 12.0825 88.9939 13.2354 89.1 14.452C89.2946 16.6912 89.1325 18.9274 89.2061 20.8161H89.2032Z" fill="#115C5A"/>
<path d="M14.4949 14.1394C16.1159 14.1394 17.734 14.1423 19.355 14.1394C20.0771 14.1394 20.3865 13.8439 20.3895 13.1313C20.3924 10.9414 20.4013 8.75151 20.3689 6.56161C20.36 5.99096 20.2598 5.40582 20.1066 4.85255C19.9887 4.42094 19.7146 4.03279 19.4375 3.6649C19.2224 3.37523 19.0072 3.08267 18.8038 2.78431C18.4914 2.32663 18.6535 1.80522 19.1723 1.60825C19.3402 1.54452 19.5289 1.51265 19.7087 1.51265C20.7019 1.50107 21.6952 1.49817 22.6913 1.49817C24.2858 1.49817 25.8833 1.49817 27.4778 1.49817C27.7342 1.49817 27.9936 1.50976 28.247 1.54452C28.9691 1.64011 29.2491 2.28028 28.8336 2.8741C28.5447 3.28833 28.2323 3.69097 27.9553 4.11389C27.69 4.51943 27.4719 4.94525 27.4483 5.44348C27.4071 6.34435 27.3127 7.24523 27.3098 8.1461C27.298 13.7541 27.298 19.365 27.3098 24.973C27.3098 25.8247 27.3864 26.6821 27.4925 27.5279C27.5338 27.8697 27.7106 28.2145 27.8934 28.5157C28.1675 28.9676 28.5064 29.3818 28.8159 29.8105C29.1253 30.2393 29.0369 30.8505 28.6125 31.0706C28.4799 31.1401 28.3089 31.1662 28.1527 31.1691C27.687 31.1807 27.2214 31.172 26.7528 31.1691C24.3595 31.1691 21.9663 31.1662 19.5731 31.1575C19.4051 31.1575 19.2194 31.1488 19.075 31.0793C18.683 30.891 18.5297 30.4246 18.7243 30.0394C18.8245 29.8366 18.96 29.6454 19.1045 29.4687C19.4965 28.9879 19.8855 28.4896 20.0682 27.9103C20.248 27.3425 20.3247 26.7313 20.3512 26.1346C20.4042 25.0542 20.3983 23.9679 20.3983 22.8845C20.3983 21.2247 20.3895 19.562 20.3807 17.9022C20.3807 17.8182 20.3807 17.7342 20.3718 17.6502C20.3276 17.1606 20.0004 16.8333 19.4935 16.787C19.3609 16.7754 19.2224 16.7754 19.0897 16.7754C16.0334 16.7754 12.977 16.7754 9.92357 16.7754C9.76442 16.7754 9.60232 16.7754 9.44611 16.7928C8.94506 16.8594 8.6356 17.1722 8.6356 17.6618C8.6356 20.6338 8.6356 23.6087 8.67096 26.5807C8.67686 27.0876 8.7977 27.6235 9.00401 28.087C9.23095 28.5939 9.61705 29.0313 9.93242 29.5006C10.0739 29.7121 10.2271 29.9177 10.3362 30.1437C10.5248 30.5318 10.2095 31.0301 9.71726 31.1401C9.59937 31.1662 9.47263 31.1691 9.35179 31.1691C6.52826 31.1691 3.70768 31.1633 0.884154 31.1575C0.798682 31.1575 0.710262 31.1575 0.627737 31.1459C0.282901 31.0967 0.0471159 30.8591 0.0264847 30.5173C0.00880079 30.2248 0.0765891 29.9554 0.265217 29.7063C0.586475 29.2833 0.916574 28.8604 1.17299 28.3998C1.39109 28.0059 1.59151 27.5917 1.59446 27.1108C1.60035 26.2679 1.65635 25.4278 1.65635 24.5849C1.6593 18.7712 1.65635 12.9575 1.65046 7.14384C1.65046 6.59057 1.60625 6.0373 1.59151 5.48403C1.57972 5.03504 1.37341 4.64399 1.1612 4.27321C0.892996 3.80684 0.530476 3.38972 0.238691 2.93494C0.117852 2.74665 0.0471159 2.51781 0.00880079 2.29766C-0.0413036 2.01378 0.126693 1.76177 0.406689 1.64011C0.559949 1.57349 0.730893 1.52714 0.895943 1.50396C1.09047 1.47789 1.28794 1.48369 1.48541 1.48079C3.95231 1.48079 6.41921 1.47789 8.88612 1.48948C9.20148 1.48948 9.52569 1.53293 9.82631 1.62273C10.4128 1.79943 10.5572 2.20497 10.233 2.71189C9.95894 3.1377 9.66126 3.54614 9.37537 3.96326C9.14548 4.30218 8.97748 4.66137 8.85959 5.06111C8.64149 5.80557 8.63854 6.55871 8.63854 7.31475C8.63854 9.25264 8.63854 11.1905 8.63854 13.1284C8.63854 13.4123 8.66507 13.673 8.89496 13.8874C9.04822 14.0293 9.20148 14.1162 9.41369 14.1162C9.85578 14.1162 10.2979 14.1278 10.74 14.1278C11.9926 14.1278 13.2423 14.1278 14.4949 14.1278V14.1394Z" fill="#115C5A"/>
<path d="M157.649 14.1388C159.27 14.1388 160.888 14.1417 162.509 14.1388C163.231 14.1388 163.541 13.8433 163.541 13.1307C163.544 10.9408 163.553 8.7509 163.52 6.56099C163.511 5.99034 163.411 5.40521 163.258 4.85193C163.14 4.42033 162.866 4.03217 162.589 3.66429C162.371 3.37462 162.159 3.08205 161.955 2.78369C161.643 2.32601 161.805 1.8046 162.324 1.60763C162.492 1.5439 162.68 1.51493 162.86 1.51204C163.732 1.49755 164.602 1.49755 165.474 1.49755C167.193 1.49755 168.911 1.49755 170.629 1.50045C170.886 1.50045 171.145 1.51204 171.398 1.5468C172.123 1.64239 172.4 2.27966 171.985 2.87638C171.696 3.29061 171.384 3.69325 171.11 4.11617C170.853 4.51012 170.632 4.92435 170.608 5.411C170.561 6.32346 170.467 7.23592 170.467 8.14838C170.455 13.7564 170.455 19.3673 170.467 24.9753C170.467 25.827 170.544 26.6844 170.65 27.5302C170.691 27.872 170.868 28.2167 171.054 28.518C171.328 28.9699 171.667 29.3841 171.976 29.8128C172.285 30.2415 172.194 30.8527 171.773 31.0729C171.64 31.1424 171.469 31.1685 171.313 31.1714C170.847 31.183 170.382 31.1743 169.913 31.1714C167.52 31.1714 165.126 31.1685 162.733 31.1598C162.565 31.1598 162.38 31.1511 162.235 31.0816C161.843 30.8904 161.69 30.4298 161.884 30.0388C161.985 29.836 162.12 29.6448 162.265 29.4681C162.645 29.0075 163.019 28.5267 163.202 27.9734C163.393 27.3854 163.482 26.751 163.511 26.1311C163.567 25.0275 163.558 23.918 163.558 22.8115C163.558 21.1749 163.547 19.5382 163.541 17.9016C163.541 17.8176 163.541 17.7336 163.532 17.6496C163.488 17.16 163.158 16.8356 162.654 16.7892C162.521 16.7777 162.382 16.7777 162.25 16.7777C159.194 16.7777 156.137 16.7777 153.084 16.7777C152.925 16.7777 152.762 16.7777 152.606 16.795C152.105 16.8646 151.819 17.1745 151.793 17.6641C151.79 17.7365 151.787 17.8089 151.787 17.8813C151.79 20.6013 151.805 23.3213 151.793 26.0413C151.793 26.7018 151.943 27.3303 152.105 27.9589C152.17 28.2052 152.332 28.434 152.474 28.657C152.615 28.8801 152.789 29.0829 152.939 29.303C153.09 29.5203 153.222 29.752 153.378 29.9635C153.818 30.5631 153.328 31.0439 152.839 31.1511C152.721 31.1772 152.594 31.1714 152.474 31.1714C149.688 31.1714 146.903 31.1656 144.118 31.1598C144.033 31.1598 143.947 31.1627 143.862 31.1569C143.443 31.1221 143.181 30.8585 143.184 30.4501C143.184 30.1836 143.254 29.9374 143.428 29.7114C143.75 29.2885 144.083 28.8656 144.336 28.405C144.554 28.0111 144.755 27.5968 144.758 27.116C144.763 26.2731 144.819 25.433 144.819 24.5901C144.822 18.7416 144.819 12.8903 144.811 7.04184C144.811 6.51175 144.769 5.98455 144.749 5.45445C144.734 5.01994 144.531 4.63758 144.321 4.28128C144.05 3.81491 143.691 3.40069 143.399 2.94301C143.278 2.75472 143.207 2.52588 143.169 2.30573C143.119 2.02186 143.287 1.76984 143.567 1.64818C143.72 1.58156 143.891 1.53521 144.056 1.51204C144.251 1.48597 144.448 1.49176 144.646 1.49176C147.112 1.49176 149.579 1.48886 152.046 1.50045C152.362 1.50045 152.686 1.5439 152.986 1.6337C153.573 1.8104 153.717 2.21594 153.39 2.72286C153.116 3.14867 152.818 3.55711 152.533 3.97423C152.303 4.31315 152.135 4.67234 152.017 5.07208C151.799 5.81654 151.796 6.56968 151.796 7.32572C151.796 9.26361 151.796 11.2015 151.796 13.1394C151.796 13.4233 151.822 13.684 152.052 13.8983C152.205 14.0403 152.359 14.1272 152.571 14.1272C153.013 14.1272 153.455 14.1359 153.897 14.1388C155.15 14.1388 156.399 14.1388 157.652 14.1388H157.649Z" fill="#115C5A"/>
<path d="M199.545 17.7336C199.545 14.1127 199.545 10.4889 199.545 6.86804C199.545 6.5552 199.536 6.24235 199.53 5.92951C199.524 5.59059 199.471 5.26616 199.327 4.94753C199.2 4.66655 199.185 4.34791 198.997 4.07852C198.796 3.79464 198.661 3.47021 198.49 3.16605C198.269 2.7721 198.263 2.34629 198.384 1.94075C198.466 1.66846 198.77 1.5468 199.041 1.47148C199.533 1.33534 200.037 1.23975 200.532 1.1065C201.048 0.967456 201.558 0.805241 202.074 0.654612C202.109 0.643025 202.145 0.634335 202.18 0.625645C202.749 0.492397 203.324 0.367839 203.889 0.223003C204.196 0.144792 204.485 0.0144408 204.812 0.00285402C205.463 -0.0203196 205.752 0.167966 206.059 0.738617C206.247 1.08912 206.283 1.43672 206.28 1.81619C206.28 4.2697 206.283 6.7261 206.289 9.17961C206.289 9.20278 206.289 9.22885 206.289 9.25203C206.297 9.47218 206.297 9.68943 206.536 9.81399C206.79 9.94724 207.019 9.85454 207.229 9.72709C207.447 9.59384 207.644 9.42873 207.857 9.28968C208.272 9.0174 208.729 8.81752 209.18 8.60896C209.522 8.44964 209.884 8.42067 210.226 8.3077C211.461 7.89637 212.725 8.02962 213.978 8.09335C214.547 8.12231 215.092 8.33667 215.629 8.55103C216.062 8.72483 216.474 8.9247 216.866 9.17671C217.53 9.60253 218.101 10.1239 218.597 10.7293C218.9 11.103 219.21 11.4825 219.439 11.8996C219.716 12.4007 220.002 12.9019 220.144 13.4696C220.247 13.8839 220.444 14.272 220.592 14.6747C220.642 14.8079 220.674 14.9498 220.701 15.0889C220.766 15.4307 220.831 15.7696 220.884 16.1143C220.934 16.4359 220.984 16.7545 221.013 17.0789C221.063 17.6061 221.096 18.1333 221.143 18.6605C221.214 19.4687 221.181 20.2711 221.09 21.0735C221.058 21.3487 221.025 21.6238 221.01 21.899C220.99 22.3335 220.94 22.7622 220.801 23.1765C220.748 23.3358 220.745 23.5096 220.704 23.6718C220.645 23.9036 220.574 24.1324 220.506 24.3612C220.489 24.4192 220.465 24.4742 220.447 24.5321C220.315 24.9435 220.22 25.3664 220.047 25.7574C219.834 26.2383 219.554 26.6902 219.304 27.1537C218.856 27.9821 218.219 28.6628 217.524 29.2885C216.908 29.8418 216.224 30.3082 215.449 30.6268C215.101 30.7716 214.768 30.9715 214.405 31.0584C213.801 31.2032 213.227 31.4582 212.584 31.4611C212.145 31.4611 211.709 31.5827 211.269 31.5856C210.621 31.5914 209.973 31.5422 209.324 31.5103C209.08 31.4987 208.835 31.4726 208.593 31.4408C208.399 31.4147 208.21 31.3713 208.019 31.3278C207.792 31.2757 207.565 31.2235 207.344 31.1511C206.996 31.041 206.633 30.9512 206.309 30.789C205.726 30.4993 205.121 30.2821 204.491 30.1344C204.222 30.0706 203.925 30.059 203.654 30.1054C203.094 30.1981 202.587 30.4385 202.112 30.7456C201.806 30.9425 201.487 31.125 201.157 31.2786C200.748 31.4668 200.364 31.322 200.017 31.0932C199.934 31.0381 199.872 30.931 199.831 30.8354C199.625 30.34 199.545 29.8215 199.545 29.2856C199.548 26.6989 199.545 24.1121 199.545 21.5225C199.545 20.2595 199.545 18.9965 199.545 17.7307H199.539L199.545 17.7336ZM206.3 19.4687C206.291 21.4182 206.241 23.3677 206.58 25.2998C206.592 25.3722 206.58 25.4562 206.619 25.5112C206.884 25.882 206.881 26.3455 207.099 26.7452C207.453 27.3912 207.827 27.9995 208.484 28.379C208.714 28.5122 208.965 28.6107 209.215 28.7034C210.259 29.0915 211.175 28.8077 211.903 28.1646C212.513 27.6258 212.911 26.9422 213.117 26.1543C213.138 26.0732 213.188 26.0008 213.215 25.9226C213.274 25.7401 213.333 25.5605 213.377 25.3751C213.418 25.2129 213.412 25.0333 213.474 24.8797C213.639 24.4684 213.669 24.0397 213.686 23.6052C213.701 23.2692 213.757 22.9361 213.778 22.6C213.813 22.0236 213.857 21.4471 213.854 20.8707C213.848 20.2566 213.784 19.6454 213.76 19.0342C213.707 17.6148 213.565 16.2128 213.135 14.8456C212.979 14.3502 212.79 13.881 212.543 13.4262C212.015 12.4529 211.243 11.8272 210.096 11.6939C209.289 11.6013 208.526 11.7519 207.851 12.1864C207.179 12.6209 206.793 13.3045 206.607 14.0403C206.386 14.9238 206.271 15.8362 206.294 16.7574C206.318 17.6583 206.3 18.562 206.3 19.4658V19.4687Z" fill="#115C5A"/>
<path d="M194.673 18.1824C194.673 20.6128 194.665 23.046 194.679 25.4763C194.682 26.1136 194.729 26.7509 194.803 27.3824C194.862 27.8806 195.204 28.3557 195.773 28.4049C196.041 28.4281 196.309 28.4484 196.58 28.4744C196.689 28.486 196.801 28.4918 196.908 28.5179C197.456 28.6453 197.683 29.2507 197.326 29.6795C196.999 30.0734 196.604 30.3949 196.126 30.6064C195.905 30.7049 195.696 30.8381 195.469 30.9279C195.039 31.0988 194.612 31.3103 194.164 31.3914C193.589 31.4957 192.996 31.4957 192.41 31.516C192.154 31.5247 191.894 31.4899 191.641 31.4522C191.426 31.4204 191.21 31.3711 191.007 31.2929C190.703 31.1742 190.379 31.1133 190.096 30.9221C189.613 30.5977 189.209 30.2125 188.917 29.7142C188.844 29.5897 188.761 29.4709 188.676 29.355C188.452 29.0567 188.234 29.0335 187.945 29.2826C187.629 29.5491 187.338 29.8504 186.996 30.0821C186.565 30.3747 186.103 30.6209 185.646 30.8787C185.151 31.1597 184.573 31.2118 184.048 31.4117C184.037 31.4146 184.025 31.4204 184.013 31.4204C183.306 31.4609 182.595 31.5131 181.885 31.5362C181.593 31.5449 181.299 31.4783 181.007 31.4696C180.55 31.458 180.099 31.4378 179.675 31.2437C179.642 31.2292 179.604 31.2205 179.568 31.2147C179.056 31.1597 178.637 30.8845 178.183 30.6817C177.588 30.4152 177.119 30.001 176.695 29.5317C176.238 29.0277 175.861 28.4715 175.622 27.8314C175.472 27.4258 175.313 27.0261 175.159 26.6205C175.15 26.5974 175.139 26.5742 175.136 26.551C175.062 25.8095 174.785 25.1027 174.785 24.3466C174.785 21.505 174.767 18.6662 174.753 15.8245C174.753 15.2944 174.761 14.7614 174.711 14.2371C174.658 13.7012 174.59 13.1538 174.422 12.644C174.272 12.1834 173.963 11.7749 173.759 11.3288C173.621 11.0247 173.503 10.7032 173.453 10.3758C173.391 9.98767 173.697 9.62848 174.086 9.51841C174.661 9.35619 175.23 9.18239 175.802 9.01438C175.837 9.00279 175.873 8.9999 175.908 8.99121C176.592 8.80872 177.273 8.62622 177.956 8.44373C178.039 8.42056 178.127 8.42056 178.21 8.39738C178.481 8.32207 178.746 8.23517 179.017 8.16854C179.521 8.04688 180.034 7.96867 180.547 8.07006C180.91 8.13958 181.107 8.41476 181.237 8.75078C181.511 9.45468 181.511 10.1904 181.514 10.9233C181.52 14.5818 181.514 18.2404 181.514 21.9018C181.514 22.7071 181.508 23.5153 181.534 24.3206C181.546 24.6537 181.626 24.9839 181.682 25.3141C181.717 25.5169 181.764 25.7168 181.814 25.9137C181.979 26.5539 182.245 27.1477 182.793 27.5533C183.144 27.8111 183.539 28.0139 184.007 27.9994C184.155 27.9936 184.302 27.9994 184.449 28.0023C185.26 28.0254 185.92 27.6923 186.48 27.1535C186.946 26.7045 187.255 26.16 187.491 25.5517C187.8 24.7551 187.883 23.9353 187.889 23.1126C187.912 20.3434 187.901 17.577 187.88 14.8078C187.874 14.2082 187.815 13.6028 187.712 13.0118C187.65 12.6526 187.491 12.2963 187.308 11.9777C187.081 11.5809 186.848 11.1869 186.68 10.764C186.453 10.1962 186.736 9.66614 187.332 9.50682C187.883 9.35909 188.428 9.18529 188.976 9.02307C189.035 9.00569 189.097 8.9999 189.156 8.98542C189.701 8.85506 190.25 8.7334 190.792 8.58857C191.284 8.45532 191.762 8.25834 192.263 8.15985C192.702 8.07295 193.164 8.05268 193.612 8.05847C194.001 8.06426 194.367 8.44083 194.461 8.84927C194.588 9.40254 194.662 9.95871 194.662 10.5294C194.65 13.0814 194.656 15.6333 194.656 18.1853L194.673 18.1824Z" fill="#115C5A"/>
<path d="M50.4966 20.4364C50.4966 22.2526 50.5025 24.0717 50.4936 25.888C50.4907 26.5079 50.5879 27.1133 50.7677 27.7013C50.8621 28.0084 51.0595 28.272 51.4014 28.3386C51.7728 28.411 52.153 28.4371 52.5302 28.4776C52.7925 28.5066 53.0313 28.5674 53.214 28.7789C53.441 29.0425 53.4852 29.2887 53.2759 29.561C53.0932 29.7985 52.8957 30.0447 52.6511 30.2099C52.0145 30.6328 51.3601 31.0383 50.5879 31.2005C50.4818 31.2237 50.3816 31.2816 50.2755 31.3106C50.0781 31.3627 49.8747 31.412 49.6743 31.4496C49.5534 31.4728 49.4267 31.4496 49.3088 31.4786C48.6103 31.6495 47.9059 31.5539 47.228 31.4236C46.4234 31.27 45.7337 30.8529 45.1826 30.233C44.7876 29.7898 44.5725 29.2539 44.3249 28.7354C44.1569 28.3791 43.9535 28.3299 43.6618 28.6167C43.367 28.9063 43.1018 29.2221 42.8011 29.5031C42.1292 30.1287 41.3717 30.6299 40.4904 30.9369C40.0189 31.102 39.5444 31.2585 39.0669 31.4033C38.9284 31.4467 38.7781 31.4438 38.6307 31.4554C38.3124 31.4815 37.997 31.5105 37.6787 31.525C37.3987 31.5365 37.1158 31.5365 36.8358 31.5308C36.6766 31.5279 36.5175 31.4786 36.3613 31.4873C35.6716 31.5279 35.0202 31.3251 34.3836 31.131C33.9002 30.9833 33.4493 30.7255 33.0013 30.4821C32.406 30.1577 31.9167 29.7 31.4923 29.1844C31.174 28.7963 30.8704 28.3878 30.7142 27.8983C30.5904 27.5101 30.4313 27.1307 30.3281 26.7367C30.2515 26.4499 30.2132 26.1458 30.1955 25.8474C30.1748 25.4998 30.1748 25.1493 30.2014 24.8017C30.219 24.5642 30.2927 24.3324 30.3487 24.1007C30.3694 24.008 30.4254 23.9153 30.4254 23.8226C30.4313 23.3939 30.6582 23.0318 30.838 22.6784C31.0856 22.1918 31.4304 21.7428 31.7782 21.3141C32.4325 20.5059 33.2312 19.8541 34.1242 19.3154C34.6312 19.0083 35.1558 18.7244 35.6834 18.4492C36.1992 18.1798 36.7238 17.9249 37.2543 17.6874C37.5962 17.5339 37.9617 17.4267 38.3124 17.2935C38.7191 17.1399 39.1258 16.9835 39.5326 16.83C39.5561 16.8213 39.5797 16.8155 39.6033 16.8097C40.0837 16.6736 40.5612 16.5374 41.0416 16.4042C41.7106 16.2188 42.3797 16.0363 43.0458 15.848C43.5291 15.7119 43.7413 15.4569 43.7384 14.9645C43.7354 14.2693 43.7266 13.5799 43.5026 12.8963C43.3788 12.5226 43.2845 12.1402 43.1077 11.7868C42.9456 11.4595 42.7009 11.193 42.4062 10.97C41.8256 10.5326 41.1359 10.5673 40.5022 10.7006C39.8509 10.8367 39.2997 11.2278 38.9726 11.8477C38.8665 12.0475 38.7309 12.2358 38.6336 12.4415C38.336 13.0701 38.0766 13.716 37.7524 14.3301C37.3751 15.0398 36.9183 15.7205 36.1402 16.045C35.5213 16.2999 34.8522 16.4592 34.1626 16.3289C33.5171 16.2072 32.8982 16.0189 32.4472 15.5091C32.1996 15.2281 31.9845 14.9297 31.8872 14.5503C31.8018 14.2114 31.6721 13.8898 31.6898 13.5306C31.7281 12.7456 31.9639 12.0301 32.4001 11.3697C32.8333 10.7093 33.4375 10.2371 34.0948 9.80548C34.6901 9.41732 35.3356 9.15083 35.9869 8.87854C36.2728 8.75977 36.5853 8.7308 36.8564 8.61204C37.4871 8.33396 38.1827 8.3832 38.8223 8.17464C38.9814 8.1225 39.1612 8.11381 39.3321 8.10222C40.7528 8.01532 42.1793 7.98345 43.5969 8.11381C44.2836 8.17753 44.9615 8.35713 45.6276 8.57438C46.1404 8.74239 46.6327 8.94226 47.1072 9.19138C47.6966 9.50422 48.2065 9.90976 48.6339 10.4167C48.7989 10.6108 48.9817 10.7904 49.1379 10.9902C49.2705 11.1611 49.3972 11.3407 49.4827 11.5348C49.7627 12.1547 50.1311 12.7456 50.1871 13.4495C50.1989 13.5886 50.2461 13.7334 50.305 13.8609C50.42 14.1071 50.4701 14.3591 50.4701 14.6314C50.4671 16.5693 50.4701 18.5072 50.4701 20.4422C50.4818 20.4422 50.4936 20.4422 50.5054 20.4422L50.4966 20.4364ZM43.7973 21.2359C43.7973 20.7318 43.8032 20.0453 43.7944 19.3588C43.7914 19.1444 43.759 18.9272 43.7001 18.7244C43.6706 18.6288 43.5527 18.5101 43.4554 18.4898C43.0811 18.4058 42.6891 18.3826 42.3325 18.5246C41.7548 18.7505 41.1978 19.0199 40.6349 19.2835C39.8214 19.663 39.0993 20.1699 38.4715 20.8072C38.0442 21.2417 37.6993 21.7254 37.4341 22.2758C37.2779 22.5973 37.2189 22.9333 37.1158 23.2607C36.7886 24.2861 36.9537 25.2507 37.4311 26.1863C37.9646 27.232 38.949 27.6231 39.9953 27.597C40.4963 27.5854 41.0003 27.458 41.4631 27.1886C42.2176 26.7483 42.7569 26.14 43.1312 25.3811C43.2904 25.0595 43.4142 24.7206 43.5262 24.3788C43.6146 24.1065 43.6912 23.8255 43.7119 23.5416C43.759 22.8348 43.7679 22.1252 43.7973 21.2359Z" fill="#115C5A"/>
<path d="M116.419 8.04395C116.947 8.07291 117.483 8.04395 117.996 8.14243C118.762 8.28727 119.54 8.40314 120.271 8.68991C121.038 8.98827 121.766 9.35905 122.408 9.86307C122.856 10.2165 123.272 10.6104 123.555 11.1173C123.658 11.3056 123.796 11.4765 123.902 11.6648C123.985 11.8097 124.038 11.969 124.106 12.1196C124.147 12.2181 124.188 12.3195 124.232 12.418C124.262 12.4846 124.312 12.5454 124.327 12.612C124.465 13.3073 124.657 13.9909 124.592 14.7151C124.453 16.2126 123.796 17.4437 122.647 18.4257C122.072 18.9153 121.456 19.3469 120.763 19.6655C120.233 19.9117 119.711 20.1724 119.169 20.3926C118.762 20.5548 118.335 20.662 117.913 20.7894C117.598 20.885 117.283 20.9806 116.964 21.0617C116.41 21.2037 115.853 21.3427 115.293 21.4702C115.007 21.5368 114.716 21.5715 114.43 21.6324C113.964 21.7309 113.492 21.8149 113.033 21.9452C112.705 22.0379 112.564 22.4145 112.708 22.7128C113.1 23.5355 113.587 24.2916 114.306 24.8854C114.721 25.2272 115.172 25.5082 115.665 25.7341C116.561 26.1454 117.495 26.3279 118.479 26.2845C118.836 26.27 119.193 26.2903 119.546 26.2613C119.835 26.2352 120.121 26.1599 120.407 26.102C120.539 26.0759 120.669 26.0354 120.799 26.0093C121.223 25.9224 121.606 25.737 121.978 25.5284C122.455 25.2619 122.921 24.9723 123.395 24.7029C123.852 24.4422 124.33 24.6594 124.421 25.1693C124.515 25.6936 124.427 26.1889 124.215 26.6813C124.032 27.1014 123.823 27.5011 123.59 27.8979C123.257 28.4686 122.803 28.9408 122.323 29.384C121.757 29.9025 121.114 30.308 120.422 30.6527C119.679 31.0235 118.874 31.1625 118.102 31.4232C118.067 31.4348 118.028 31.4406 117.993 31.4406C117 31.4406 116.015 31.6376 115.019 31.513C114.716 31.4754 114.406 31.4841 114.102 31.4464C113.811 31.4116 113.525 31.3508 113.236 31.2958C113.021 31.2552 112.806 31.206 112.591 31.1596C112.508 31.1423 112.417 31.1394 112.337 31.1104C111.615 30.8526 110.875 30.6266 110.2 30.2617C109.148 29.6881 108.167 29.0132 107.38 28.1036C106.994 27.6575 106.616 27.194 106.298 26.6987C106.006 26.2468 105.782 25.7515 105.552 25.2648C105.381 24.9086 105.246 24.5378 105.093 24.1728C105.087 24.1612 105.081 24.1525 105.078 24.1409C104.951 23.605 104.818 23.0691 104.706 22.5275C104.636 22.1885 104.6 21.8409 104.55 21.4962C104.441 20.7402 104.441 19.9842 104.518 19.2281C104.574 18.6893 104.642 18.1534 104.715 17.6175C104.739 17.4409 104.795 17.267 104.842 17.0932C104.869 16.989 104.919 16.8876 104.936 16.7833C105.042 16.175 105.252 15.6014 105.511 15.0453C105.741 14.5557 105.935 14.0488 106.207 13.5853C106.631 12.8554 107.111 12.1544 107.727 11.5634C108.181 11.1289 108.647 10.6973 109.142 10.3121C109.561 9.98763 110.003 9.68058 110.504 9.47202C111.052 9.24318 111.583 8.97958 112.122 8.73336C112.134 8.72757 112.145 8.72467 112.157 8.72177C112.753 8.64356 113.295 8.36258 113.905 8.32203C114.341 8.29306 114.772 8.15692 115.211 8.11636C115.612 8.07871 116.018 8.10767 116.425 8.10767C116.425 8.0874 116.425 8.06422 116.425 8.04395H116.419ZM118.535 13.539C118.597 12.9307 118.529 12.6236 118.276 12.0066C118.14 11.6706 117.907 11.4273 117.636 11.1927C117.403 10.9928 117.118 10.932 116.852 10.8161C116.454 10.6394 116.039 10.622 115.626 10.7147C114.772 10.9059 114.02 11.294 113.463 11.9777C112.876 12.6961 112.461 13.5013 112.266 14.408C112.249 14.4891 112.24 14.5818 112.199 14.6513C112.028 14.9323 112.019 15.2451 111.989 15.5551C111.969 15.781 111.936 16.0099 111.895 16.2329C111.759 16.9948 111.709 17.7653 111.768 18.5329C111.815 19.1731 112.278 19.5178 112.962 19.2368C113.13 19.1673 113.307 19.118 113.481 19.0688C113.61 19.0311 113.752 19.0253 113.873 18.9732C114.427 18.727 114.984 18.4866 115.526 18.2143C116.186 17.8811 116.761 17.4264 117.238 16.876C117.536 16.5342 117.851 16.1924 118.005 15.7463C118.102 15.4653 118.252 15.2017 118.347 14.9207C118.432 14.6745 118.491 14.4138 118.529 14.156C118.559 13.9561 118.535 13.7476 118.535 13.5448V13.539Z" fill="#115C5A"/>
<path d="M134.861 18.6921C134.861 20.4967 134.852 22.3043 134.867 24.1089C134.87 24.5869 134.911 25.0735 135.008 25.5428C135.126 26.1047 135.474 26.5537 135.995 26.8231C136.8 27.2402 137.646 27.2026 138.501 26.9766C138.678 26.9303 138.86 26.9042 139.037 26.8608C139.226 26.8115 139.406 26.7333 139.597 26.6986C139.907 26.6406 140.222 26.5885 140.534 26.5798C140.637 26.5769 140.788 26.687 140.844 26.7855C140.929 26.939 141.009 27.1302 140.988 27.2953C140.944 27.6603 140.882 28.0137 140.691 28.3584C140.281 29.0999 139.691 29.659 139.014 30.1369C138.568 30.4498 138.082 30.7018 137.575 30.9249C137.121 31.1247 136.632 31.1798 136.187 31.3825C136.131 31.4086 136.069 31.4289 136.01 31.4318C135.338 31.4636 134.666 31.4984 133.994 31.5216C133.835 31.5274 133.676 31.4839 133.517 31.481C133.025 31.4723 132.553 31.3883 132.076 31.2464C131.589 31.1015 131.141 30.9046 130.711 30.6555C130.054 30.276 129.532 29.7517 129.149 29.1144C128.583 28.173 128.306 27.1533 128.209 26.0526C128.032 24.0423 128.123 22.0349 128.105 20.0275C128.085 17.9563 128.111 15.8881 128.097 13.8169C128.094 13.3998 128.044 12.9711 127.929 12.5684C127.808 12.1484 127.484 11.8298 127.139 11.5546C126.788 11.2765 126.417 11.0187 126.081 10.7204C125.639 10.3264 125.683 9.65726 126.057 9.29807C126.396 8.97074 126.77 8.67817 127.145 8.38561C127.814 7.8613 128.492 7.34859 129.169 6.83298C129.883 6.2855 130.599 5.74092 131.312 5.19634C131.863 4.77632 132.414 4.35629 132.96 3.93338C133.378 3.60605 133.841 3.59736 134.315 3.76826C134.554 3.85517 134.719 4.05504 134.772 4.30126C134.822 4.53299 134.852 4.77632 134.855 5.01385C134.864 5.91762 134.855 6.81849 134.864 7.72226C134.864 7.94821 134.92 8.17415 134.958 8.39719C134.987 8.57389 135.111 8.67528 135.285 8.69266C135.503 8.71583 135.724 8.73321 135.945 8.72742C137.074 8.69556 138.203 8.6579 139.329 8.62314C139.526 8.61734 139.721 8.62893 139.918 8.61445C140.411 8.58258 140.72 8.8346 140.953 9.22565C141.324 9.84265 141.28 10.4568 140.953 11.0709C140.879 11.207 140.814 11.3576 140.711 11.4677C140.469 11.7284 140.169 11.8443 139.795 11.8356C138.456 11.8066 137.118 11.8037 135.783 11.7921C135.147 11.7863 134.964 11.8472 134.87 12.6322C134.846 12.8349 134.855 13.0406 134.855 13.2463C134.855 15.0625 134.855 16.8816 134.855 18.6979L134.861 18.6921Z" fill="#115C5A"/>
<path d="M101.423 14.2605C101.423 18.003 101.423 21.7484 101.423 25.491C101.423 25.7198 101.42 25.9487 101.405 26.1775C101.364 26.8524 101.515 27.5013 101.762 28.1154C101.912 28.4862 102.184 28.8135 102.405 29.1553C102.602 29.4566 102.823 29.7462 103.009 30.0533C103.283 30.511 103.018 31.0556 102.481 31.1598C102.387 31.1772 102.287 31.1772 102.189 31.1772C99.4278 31.1743 96.6662 31.1685 93.9045 31.1656C93.6246 31.1656 93.3711 31.1193 93.1559 30.9252C92.8848 30.6819 92.8258 30.3545 93.0263 30.0533C93.3004 29.642 93.5715 29.2306 93.8633 28.8309C94.3761 28.1328 94.5913 27.342 94.6414 26.5048C94.6797 25.856 94.6679 25.2042 94.6679 24.5553C94.6679 18.8488 94.6679 13.1452 94.6679 7.43873C94.6679 6.99264 94.6767 6.54655 94.6414 6.10335C94.6148 5.77023 94.5441 5.44001 94.4675 5.11268C94.3879 4.77666 94.3319 4.43485 94.1256 4.13359C93.9429 3.8671 93.8279 3.55715 93.657 3.28486C93.4389 2.93726 93.3917 2.56358 93.4271 2.17542C93.4595 1.82203 93.7395 1.56422 94.1551 1.46573C94.6767 1.34117 95.2014 1.2282 95.7201 1.08916C96.2123 0.955912 96.6986 0.793697 97.1879 0.645965C97.2114 0.640171 97.235 0.634378 97.2586 0.628585C97.8304 0.495336 98.4022 0.370778 98.968 0.22884C99.3099 0.144835 99.6341 0 100.003 0C100.565 0 100.937 0.25491 101.164 0.761833C101.367 1.21662 101.426 1.67719 101.426 2.16673C101.417 6.19894 101.42 10.2312 101.42 14.2634L101.423 14.2605Z" fill="#115C5A"/>
</svg>
